<svg width="28.000000" height="26.009125" viewBox="0 0 28 26.0091" fill="none" xmlns="http://www.w3.org/2000/svg" xmlns:xlink="http://www.w3.org/1999/xlink">
	<desc>
			Created with Pixso.
	</desc>
	<defs>
		<filter id="filter_28_19_dd" x="0.000000" y="0.000000" width="28.000000" height="26.009125" filterUnits="userSpaceOnUse" color-interpolation-filters="sRGB">
			<feFlood flood-opacity="0" result="BackgroundImageFix"/>
			<feColorMatrix in="SourceAlpha" type="matrix" values="0 0 0 0 0 0 0 0 0 0 0 0 0 0 0 0 0 0 127 0" result="hardAlpha"/>
			<feOffset dx="0" dy="4"/>
			<feGaussianBlur stdDeviation="1.33333"/>
			<feComposite in2="hardAlpha" operator="out" k2="-1" k3="1"/>
			<feColorMatrix type="matrix" values="0 0 0 0 0 0 0 0 0 0 0 0 0 0 0 0 0 0 0.25 0"/>
			<feBlend mode="normal" in2="BackgroundImageFix" result="effect_dropShadow_1"/>
			<feBlend mode="normal" in="SourceGraphic" in2="effect_dropShadow_1" result="shape"/>
		</filter>
	</defs>
	<g filter="url(#filter_28_19_dd)">
		<path id="coolicon" d="M14 18C13.35 17.42 12.62 16.83 11.85 16.2L11.84 16.2C9.13 13.98 6.05 11.46 4.69 8.45C4.24 7.5 4.01 6.45 4 5.4C3.99 3.95 4.57 2.56 5.61 1.54C6.64 0.52 8.04 -0.03 9.5 0C10.68 0 11.83 0.34 12.82 0.98C13.26 1.26 13.65 1.6 14 2C14.34 1.61 14.73 1.26 15.17 0.98C16.16 0.34 17.31 0 18.5 0C19.95 -0.03 21.35 0.52 22.38 1.54C23.42 2.56 24 3.95 24 5.4C23.98 6.45 23.75 7.5 23.3 8.46C21.94 11.47 18.87 13.98 16.15 16.2L16.14 16.2C15.37 16.83 14.64 17.43 14 18L14 18ZM9.5 2C8.56 1.98 7.67 2.34 7 2.99C6.35 3.62 5.99 4.49 5.99 5.4C6.01 6.17 6.18 6.93 6.51 7.62C7.15 8.92 8.01 10.1 9.06 11.1C10.06 12.1 11.2 13.06 12.18 13.88C12.45 14.1 12.73 14.33 13.01 14.56L13.19 14.7C13.45 14.92 13.73 15.14 14 15.37L14.01 15.35L14.01 15.35L14.02 15.35L14.03 15.34L14.03 15.34L14.04 15.34L14.06 15.33L14.1 15.29L14.11 15.29L14.12 15.28L14.12 15.28L14.13 15.27L14.8 14.73L14.97 14.58C15.25 14.36 15.53 14.13 15.8 13.9C16.79 13.09 17.93 12.12 18.92 11.12C19.97 10.12 20.83 8.94 21.48 7.65C21.81 6.94 21.99 6.17 22 5.4C22 4.49 21.64 3.63 21 3C20.33 2.35 19.43 1.99 18.5 2C17.36 1.99 16.27 2.46 15.51 3.31L14 5.05L12.49 3.31C11.72 2.46 10.63 1.99 9.5 2Z" fill="#C4C4C4" fill-opacity="1.000000" fill-rule="nonzero"/>
	</g>
</svg>
