<svg width="18.000000" height="21.000000" viewBox="0 0 18 21" fill="none" xmlns="http://www.w3.org/2000/svg" xmlns:xlink="http://www.w3.org/1999/xlink">
	<desc>
			Created with Pixso.
	</desc>
	<defs/>
	<path id="Vector" d="M4 7L4 5C4 3.67 4.52 2.4 5.46 1.46C6.4 0.52 7.67 0 9 0C10.32 0 11.59 0.52 12.53 1.46C13.47 2.4 14 3.67 14 5L14 7L17 7C17.26 7 17.51 7.1 17.7 7.29C17.89 7.48 18 7.73 18 8L18 20C18 20.26 17.89 20.51 17.7 20.7C17.51 20.89 17.26 21 17 21L1 21C0.73 21 0.48 20.89 0.29 20.7C0.1 20.51 0 20.26 0 20L0 8C0 7.73 0.1 7.48 0.29 7.29C0.48 7.1 0.73 7 1 7L4 7ZM4 9L2 9L2 19L16 19L16 9L14 9L14 11L12 11L12 9L6 9L6 11L4 11L4 9ZM6 7L12 7L12 5C12 4.2 11.68 3.44 11.12 2.87C10.55 2.31 9.79 2 9 2C8.2 2 7.44 2.31 6.87 2.87C6.31 3.44 6 4.2 6 5L6 7Z" fill="#C4C4C4" fill-opacity="1.000000" fill-rule="nonzero"/>
</svg>
